<svg xmlns="http://www.w3.org/2000/svg" width="960" height="280" viewBox="0 0 960 280" fill="none">
  <defs>
    <linearGradient id="g1" x1="0" y1="0" x2="1" y2="1">
      <stop stop-color="#FF8FAB"/>
      <stop offset="1" stop-color="#A78BFA"/>
    </linearGradient>
    <marker id="arrow" markerWidth="8" markerHeight="8" refX="6" refY="4" orient="auto">
      <path d="M0 0L8 4L0 8z" fill="#C084FC"/>
    </marker>
  </defs>
  <rect width="960" height="280" rx="24" fill="#FFFBFE" stroke="#F3E8FF"/>

  <g transform="translate(32 40)">
    <rect width="196" height="200" rx="16" fill="white" stroke="#F3E8FF"/>
    <text x="20" y="32" fill="#6B21A8" font-family="system-ui,sans-serif" font-size="14" font-weight="700">` Ž­</text>
    <rect x="20" y="52" width="156" height="120" rx="10" fill="#FAF5FF"/>
    <text x="32" y="82" fill="#4B5563" font-family="system-ui,sans-serif" font-size="11">±r SaaS =0u</text>
    <text x="32" y="100" fill="#4B5563" font-family="system-ui,sans-serif" font-size="11">+Ü„ FAQ&</text>
  </g>
  <path d="M240 140H268" stroke="#C084FC" stroke-width="2" marker-end="url(#arrow)"/>

  <g transform="translate(280 40)">
    <rect width="196" height="200" rx="16" fill="white" stroke="#F3E8FF"/>
    <text x="20" y="32" fill="#6B21A8" font-family="system-ui,sans-serif" font-size="14" font-weight="700">a </text>
    <rect x="20" y="56" width="156" height="24" rx="6" fill="#F3E8FF"/>
    <rect x="20" y="88" width="120" height="24" rx="6" fill="#EDE9FE"/>
    <rect x="20" y="120" width="140" height="24" rx="6" fill="#EDE9FE"/>
    <rect x="20" y="152" width="156" height="24" rx="6" fill="url(#g1)" fill-opacity="0.3"/>
  </g>
  <path d="M488 140H516" stroke="#C084FC" stroke-width="2" marker-end="url(#arrow)"/>

  <g transform="translate(528 40)">
    <rect width="196" height="200" rx="16" fill="white" stroke="#F3E8FF"/>
    <text x="20" y="32" fill="#6B21A8" font-family="system-ui,sans-serif" font-size="14" font-weight="700">b ä╚</text>
    <rect x="20" y="52" width="156" height="120" rx="10" fill="#1E1B2E"/>
    <rect x="32" y="68" width="72" height="8" rx="4" fill="#E879F9"/>
    <rect x="32" y="84" width="120" height="6" rx="3" fill="#6B7280"/>
    <rect x="32" y="108" width="56" height="20" rx="6" fill="url(#g1)"/>
  </g>
  <path d="M736 140H764" stroke="#C084FC" stroke-width="2" marker-end="url(#arrow)"/>

  <g transform="translate(776 40)">
    <rect width="152" height="200" rx="16" fill="white" stroke="#F3E8FF"/>
    <text x="20" y="32" fill="#6B21A8" font-family="system-ui,sans-serif" font-size="14" font-weight="700">c č</text>
    <circle cx="76" cy="120" r="32" fill="url(#g1)" fill-opacity="0.2"/>
    <path d="M64 120l10 10 20-22" stroke="#A855F7" stroke-width="3" fill="none" stroke-linecap="round" stroke-linejoin="round"/>
    <text x="76" y="175" fill="#6B7280" font-family="system-ui,sans-serif" font-size="10" text-anchor="middle">EdgeOne / Vercel</text>
  </g>
</svg>
